<svg data-name="Layer 1" xmlns="http://www.w3.org/2000/svg" viewBox="0 0 432 432"><path fill="#75c2c6" d="M0 0h432v432H0z"/><path fill="#fff" d="M179.66 74.05h74.68l59.98 47.04v112.9l-60.57 47.04h-74.09l-59.98-47.63V120.5l59.98-46.45z"/><path d="M180.77 141a8 8 0 0 1 8 8v10.79a2.73 2.73 0 0 0 2.73 2.73 2.86 2.86 0 0 0 2.87-2.86v-47a6.56 6.56 0 0 1 6.56-6.56 6.38 6.38 0 0 1 6.38 6.37v41.62a2.77 2.77 0 0 0 2.77 2.77 2.86 2.86 0 0 0 2.87-2.86v-53a5.74 5.74 0 0 1 5.75-5.75 5.9 5.9 0 0 1 5.91 5.9v53.1a3 3 0 0 0 3 3h.12a3.41 3.41 0 0 0 3.42-3.41V112a6 6 0 0 1 5.94-6 6.3 6.3 0 0 1 6.33 6.31v49a3.57 3.57 0 0 0 3.56 3.56 3.08 3.08 0 0 0 3.08-3.08v-36.72a5.61 5.61 0 0 1 5.62-5.61 5.63 5.63 0 0 1 5.63 5.63v77.16a42.31 42.31 0 0 1-42.19 42.19h-7.84a39 39 0 0 1-38.89-38.89v-56.3a8.22 8.22 0 0 1 8.38-8.25z" fill="#9ed1da" opacity=".65"/><text transform="translate(143.1 356.12)" font-size="28.6" font-family="Inter-SemiBold,Inter" font-weight="600" fill="#fff">Upstander</text></svg>