<svg id="Layer_1" data-name="Layer 1" xmlns="http://www.w3.org/2000/svg" viewBox="0 0 531.05 542.47"><defs><style>.cls-2{fill:#fff}</style></defs><circle cx="265.53" cy="271.24" r="211.55" fill="#7b7bc4"/><rect class="cls-2" x="227.85" y="309.79" width="28.62" height="98.75" rx="14.31" transform="rotate(168.84 242.178 359.152)"/><rect class="cls-2" x="196.28" y="184.86" width="104.7" height="188.51" rx="52.35" transform="rotate(-103.66 248.641 279.116)"/><rect x="343.51" y="238.73" width="25.24" height="39.14" rx="12.62" transform="rotate(-103.66 356.15 258.295)" opacity=".65" fill="#fff"/><path class="cls-2" d="M289.55 322.65l-17.82-101.94a1.38 1.38 0 0 1 .23-1.06l54.77-79.28a1.43 1.43 0 0 1 2.59.56l42.28 235.94a1.44 1.44 0 0 1-2.23 1.44l-79.22-54.73a1.43 1.43 0 0 1-.6-.93z"/><path d="M351 262.07l-68.17 10.86c-.3.1-.61.18-.91.26l-68.15 16.56a14.76 14.76 0 0 1-3.4.41 14.31 14.31 0 0 1-3.36-28.22l68.14-16.57v-.26l63.66-51.28 3.05 17z" opacity=".29" fill="#7b7bc4"/></svg>