<svg id="Layer_1" data-name="Layer 1" xmlns="http://www.w3.org/2000/svg" viewBox="0 0 531.05 542.47"><defs><style>.cls-2,.cls-3{fill:#fff}.cls-3{opacity:.65}</style></defs><circle cx="265.53" cy="271.24" r="211.55" fill="#dd8d87"/><rect class="cls-2" x="261.95" y="143.14" width="28.02" height="95.11" rx="13.29"/><rect class="cls-2" x="300.46" y="144.49" width="28.02" height="95.11" rx="13.29"/><path class="cls-3" d="M181.67 243v97.21h177.55v-160.7h-82.75s-4.19 25.24 44.19 23.7v56.64s-53-4.8-57.59 52h-12.68s-1.53-59.9 55.68-64.5c0 0-11.52-1.16-11.14-9.6 0 0-4.22 11.52-20.35 11.52 0 0-11.9 1.15-17.27-10.37 0 0-5.38 9.6-21.12 10S216.61 237 216.61 237s-3.84 13.05-18.43 12.67-16.51-6.67-16.51-6.67z"/><rect class="cls-2" x="183.55" y="142.47" width="28.02" height="95.11" rx="13.29"/><rect class="cls-2" x="222.06" y="143.82" width="28.02" height="95.11" rx="13.29"/><path class="cls-3" d="M307.07 340.19l-85.01 64.14-.22-64.14h85.23z"/></svg>