<svg id="Layer_1" data-name="Layer 1" xmlns="http://www.w3.org/2000/svg" viewBox="0 0 531.05 542.47"><defs><style>.cls-3{fill:none;stroke:#fff;stroke-linecap:round;stroke-miterlimit:10;stroke-width:8.88px}</style></defs><circle cx="265.53" cy="271.24" r="211.55" fill="#10776b"/><path d="M327.18 337.43c3.65 18.25 10.28 68.65-28.24 67.31 0 0-16.92 3.54-34.39-19.55s-43-41.27-55.24-61.66c-9.74-16.29-44.36-80.3-9.59-136.21S294.8 157.13 305.9 176c10.44 17.8 17.4 116.29 19.3 146.26a113.28 113.28 0 0 0 1.98 15.17z" fill="#abffef" opacity=".42"/><path class="cls-3" d="M327.18 337.43c3.65 18.25 10.28 68.65-28.24 67.31 0 0-16.92 3.54-34.39-19.55s-43-41.27-55.24-61.66c-9.63-16.1-43.52-78.76-10.83-134.17a53 53 0 0 1 3.3-4.32c8.2-11.11 56.28-59 99.55-12.69a36.45 36.45 0 0 1 8.67 15.73c1.21 4.68 2.63 10.79 3.55 16.77"/><path class="cls-3" d="M266.69 341.76s-63.6-34.42-49.6-107.37 92.2-62.43 69.44 27.43"/><path class="cls-3" d="M290.6 235s-60.67 28.56-40.24 62.41c0 0 16.81 19.86 33.08 22.36 0 0 8.76 3.13 12.2 8.77s9.7 9.07 15 5.94 2.5-12.52-2.81-19.09-14.4-22.21-6.89-32.54"/></svg>