<svg data-name="Layer 1" xmlns="http://www.w3.org/2000/svg" viewBox="0 0 531.05 542.47"><circle cx="265.53" cy="271.24" r="211.55" fill="#9ed1da"/><path fill="#fff" d="M219.5 143.66h92.05l73.94 57.99v139.17l-74.66 57.99H219.5l-73.93-58.71V200.93l73.93-57.27z"/><path d="M220.86 226.22a9.91 9.91 0 0 1 9.91 9.92v13.3a3.37 3.37 0 0 0 3.37 3.37h.06a3.53 3.53 0 0 0 3.52-3.53v-57.91a8.09 8.09 0 0 1 8.09-8.09 7.86 7.86 0 0 1 7.87 7.86v51.3a3.42 3.42 0 0 0 3.42 3.42 3.53 3.53 0 0 0 3.53-3.54v-65.45a7.09 7.09 0 0 1 7.09-7.09 7.28 7.28 0 0 1 7.29 7.28v65.45a3.75 3.75 0 0 0 3.75 3.76h.16a4.21 4.21 0 0 0 4.2-4.21v-51.64a7.37 7.37 0 0 1 7.33-7.36 7.78 7.78 0 0 1 7.81 7.77v60.46a4.38 4.38 0 0 0 4.38 4.38 3.79 3.79 0 0 0 3.8-3.79v-45.32a6.92 6.92 0 0 1 6.92-6.92 6.94 6.94 0 0 1 6.94 6.94v95.12a52.16 52.16 0 0 1-52 52h-9.67a48.08 48.08 0 0 1-47.94-47.94v-69.39a10.15 10.15 0 0 1 10.17-10.15z" opacity=".65" fill="#9ed1da"/></svg>