<svg id="Layer_1" data-name="Layer 1" xmlns="http://www.w3.org/2000/svg" viewBox="0 0 531.05 542.47"><defs><style>.cls-4{fill:#fff}</style></defs><circle cx="265.53" cy="271.24" r="211.55" fill="#fd7853"/><path d="M257.29 308.51l-2.06-.64a14.15 14.15 0 0 1 1.33 3.83 11.64 11.64 0 0 1 .73-3.19z" fill="none"/><path d="M320.51 328.17c-.34 1.33-.59 2.1-.59 2.1-9.6 30.91-58.69 83.69-58.69 83.69s-53.69-48.08-66.07-78c0 0-10-22.49 5.74-38.21a39.7 39.7 0 0 1 12.31-8.64c11-4.8 21-1.92 27.35 1.63C248 294.87 253 303 255.22 307.87a14.42 14.42 0 0 1 1.34 3.82 12.45 12.45 0 0 1 .71-3.18c1.64-5 6-14.12 13.31-19.13 8.26-5.62 23.24-10.67 40.14 3.36 14 11.64 11.28 29.36 9.79 35.43z" opacity=".65" fill="#fff"/><path class="cls-4" d="M354.78 227.7l-24.95 85.89a6.76 6.76 0 0 0 .13-1.54l-.3 2.16s-2.76-23.1-20.85-32.56c-.77-.4-1.55-.78-2.37-1.12-34.08-15.28-49.78 14.3-49.78 14.3v-.05l-.87 3c-21-28.76-43-17.77-43-17.77l-.21-4.68c-.32-18-1.31-72.8-1.79-83.29-.57-12.58 1-28.32 9-28.85s9.3 9 9.3 9 2.39 13 5 43.85 6.19 34.21 12.45 35.16 7.91-9.61 7.91-9.61 2.8-32.12 5.87-54.65 8.09-40.53 15.76-40 5.25 25.53 5.25 25.53l-6.78 57.54s-2 23.55 1.95 23.54 4.88-6.44 4.88-6.44 9-35.61 14.36-51 15-34.09 21.61-29.07.51 26.82.51 26.82l-15.63 58.24s-4 13.7 2.23 17.52 10.54-6.9 10.54-6.9l20.81-38.45s8.53-19.58 18-17 .97 20.43.97 20.43z"/><path d="M212.61 275.4z" fill="#7eb5ee"/><path class="cls-4" d="M199.68 289.71s-23.18 15.71-12.1 42c0 0-12-25.59-26.63-38.62s-19.49-22.05-12.2-30 24.4 3.91 50.93 26.62z"/></svg>